# xmcd CD database file
#
# Track frame offsets:
#	150
#	18525
#	36753
#	49847
#	68416
#	83761
#	97800
#	123903
#	141352
#	155391
#	169922
#	192941
#	209548
#
# Disc length: 2998 seconds
#
# Revision: 0
# Processed by: cddbd v1.4PL0 Copyright (c) Steve Scherf et al.
# Submitted via: CDex 1.40Release
#
DISCID=aa0bb40d
DTITLE=Alan Jackson - Drive
DYEAR=2002
DGENRE=Country
TTITLE0=Drive (For Daddy Gene)
TTITLE1=A Little Bluer Than That
TTITLE2=Bring On The Night
TTITLE3=Work In Progress
TTITLE4=The Sounds
TTITLE5=Designated Drinker (A duet with George Strait)
TTITLE6=Where Were You (When The World Stopped Turning)
TTITLE7=That'd Be Alright
TTITLE8=Oncec In A Lifetime Love
TTITLE9=Whe Love Comes Around
TTITLE10=I Slipped and Fell In Love
TTITLE11=First Love
TTITLE12=Where Were You (When The World Stopped Turning) - Live performance from the 35th Annual CMA Awards
EXTD=YEAR: 2002 ID3G: 2
EXTT0=
EXTT1=
EXTT2=
EXTT3=
EXTT4=
EXTT5=
EXTT6=
EXTT7=
EXTT8=
EXTT9=
EXTT10=
EXTT11=
EXTT12=
PLAYORDER=
